<?xml version="1.0" encoding="UTF-8"?>
<svg version="1.1" xmlns="http://www.w3.org/2000/svg" width="568" height="385">
<path d="M0 0 C187.44 0 374.88 0 568 0 C568 127.05 568 254.1 568 385 C380.56 385 193.12 385 0 385 C0 257.95 0 130.9 0 0 Z " fill="#FEFEFE" transform="translate(0,0)"/>
<path d="M0 0 C6.48742422 3.0170772 11.04038497 7.89908735 15.53515625 13.34765625 C17.14903343 15.25141992 17.14903343 15.25141992 20 17.5 C22.33618185 19.44681821 24.03430755 21.13044709 25.9375 23.4375 C28.49626965 26.52543929 31.26714403 29.0530788 34.3515625 31.60546875 C36.70635939 33.59755996 38.81960075 35.81960075 41 38 C42.28710584 39.10947977 43.57920142 40.21318528 44.875 41.3125 C48.97764551 44.86136636 52.66031167 48.72102433 56 53 C56 53.33 56 53.66 56 54 C52.7 54 49.4 54 46 54 C46 59.94 46 65.88 46 72 C43.31875 73.11375 40.6375 74.2275 37.875 75.375 C36.62565674 75.89586182 36.62565674 75.89586182 35.35107422 76.42724609 C32.30201861 77.68804623 29.29988449 78.90633745 26.1484375 79.890625 C21.16358111 81.64707564 16.49360776 84.05508887 11.75 86.375 C6.12560992 89.12470182 0.53829831 91.84221087 -5.30078125 94.109375 C-9.43742941 95.72269249 -13.11640607 97.61233082 -16.9375 99.875 C-18.13749938 100.57771414 -19.33802675 101.27952739 -20.5390625 101.98046875 C-21.12204102 102.32255371 -21.70501953 102.66463867 -22.30566406 103.01708984 C-25.56718442 104.90914762 -28.88955351 106.68913901 -32.20703125 108.48046875 C-36.15259315 110.62707515 -40.0735469 112.81863717 -44 115 C-44 94.87 -44 74.74 -44 54 C-46.97 54 -49.94 54 -53 54 C-50.41056039 48.82112077 -46.36813411 44.73749054 -42 41 C-41.34 41 -40.68 41 -40 41 C-39.7628125 40.43796875 -39.525625 39.8759375 -39.28125 39.296875 C-37.71052303 36.48105958 -35.78528536 34.52044584 -33.5 32.25 C-32.7059375 31.45078125 -31.911875 30.6515625 -31.09375 29.828125 C-29 28 -29 28 -27 28 C-26.7525 27.42765625 -26.505 26.8553125 -26.25 26.265625 C-24.80683801 23.64989389 -23.11783778 21.85226544 -21 19.75 C-19.948125 18.69039062 -19.948125 18.69039062 -18.875 17.609375 C-17 16 -17 16 -15 16 C-14.76023438 15.43410156 -14.52046875 14.86820313 -14.2734375 14.28515625 C-12.73639857 11.52697289 -10.87656882 9.6479272 -8.625 7.4375 C-7.46871094 6.29087891 -7.46871094 6.29087891 -6.2890625 5.12109375 C-4.27286711 3.25284444 -2.23393837 1.59639888 0 0 Z " fill="#78AF3C" transform="translate(157,66)"/>
<path d="M0 0 C-3.78347163 2.30298273 -7.40752041 4.21162739 -11.5625 5.75 C-16.6242865 7.69150715 -21.17681048 10.33360202 -25.82861328 13.0793457 C-29.12993022 15.00399468 -32.34490897 16.64034151 -35.9375 17.9375 C-41.13070365 19.8561713 -45.63138538 22.67960451 -50.32080078 25.57739258 C-54.23275386 27.98197399 -58.16497356 30.13931166 -62.3125 32.125 C-67.15806926 34.46963029 -71.41238002 37.24088704 -75.7578125 40.40625 C-77.69283371 41.78166578 -79.61134533 42.98080809 -81.6875 44.125 C-84.23548665 45.5672566 -86.46935174 47.0239772 -88.8125 48.75 C-92 51 -92 51 -94 51 C-94.33 51.99 -94.66 52.98 -95 54 C-96.71792059 54.99110803 -98.43966507 55.97671554 -100.1875 56.9140625 C-102.20591762 58.02355455 -102.20591762 58.02355455 -104.25 60.25 C-106.83816303 62.83816303 -109.38017242 64.72754511 -112.375 66.8125 C-116.7422644 69.91771891 -120.13647039 73.11729303 -123.51171875 77.2578125 C-125 79 -125 79 -127.6875 81.125 C-130.4984102 83.40411637 -132.02710242 85.97900058 -134 89 C-135.82421875 91.671875 -135.82421875 91.671875 -139 94 C-143.2845201 94.62452456 -147.49449446 94.4697383 -151.8125 94.3125 C-153.56723633 94.27866211 -153.56723633 94.27866211 -155.35742188 94.24414062 C-158.23958769 94.18532091 -161.11913681 94.10317141 -164 94 C-163.24332031 93.26394531 -162.48664063 92.52789062 -161.70703125 91.76953125 C-159.47405442 89.4849994 -157.56254698 87.26023887 -155.6875 84.6875 C-155.17574219 83.99011719 -154.66398437 83.29273438 -154.13671875 82.57421875 C-153.76160156 82.05472656 -153.38648438 81.53523438 -153 81 C-153.99 80.67 -154.98 80.34 -156 80 C-156.66386719 80.67546875 -157.32773438 81.3509375 -158.01171875 82.046875 C-158.89472656 82.93890625 -159.77773437 83.8309375 -160.6875 84.75 C-161.55761719 85.63171875 -162.42773438 86.5134375 -163.32421875 87.421875 C-164.64873047 88.69804687 -164.64873047 88.69804687 -166 90 C-166.71220703 90.70511719 -167.42441406 91.41023438 -168.15820312 92.13671875 C-171.83766134 94.5492295 -174.89657245 94.50917403 -179.14453125 94.390625 C-179.91431808 94.38496521 -180.68410492 94.37930542 -181.47721863 94.37347412 C-183.92295943 94.35117872 -186.3672061 94.30099875 -188.8125 94.25 C-190.47589022 94.229926 -192.13930353 94.2116768 -193.80273438 94.1953125 C-197.86906058 94.15133684 -201.93427744 94.08235979 -206 94 C-204.05527303 90.11054606 -198.98607082 88.32869027 -195 87 C-195 86.34 -195 85.68 -195 85 C-193.42578125 83.81640625 -193.42578125 83.81640625 -191.3125 82.5625 C-190.62800781 82.15128906 -189.94351563 81.74007812 -189.23828125 81.31640625 C-187.68372481 80.40212087 -186.12902717 79.48807555 -184.57421875 78.57421875 C-181.81560908 76.88723894 -179.16531749 75.0805752 -176.5 73.25 C-171.25811313 69.73402203 -165.88653742 66.71483774 -160.296875 63.79296875 C-156.87232302 61.9305643 -153.60286157 59.90180236 -150.3125 57.8125 C-145.87001607 55.036611 -141.63221959 52.91468598 -136.7265625 51.125 C-133.17566706 49.65987409 -129.86635702 47.84344148 -126.5 46 C-121.72362567 43.39518654 -117.03011015 41.09978479 -111.92578125 39.1953125 C-106.85525317 37.12377499 -101.95402278 34.67246025 -97.03808594 32.26000977 C-92.57136552 30.09936576 -88.16245405 28.32075167 -83.43579102 26.82006836 C-78.45088281 25.14177762 -73.61652929 23.05293511 -68.75 21.0625 C-61.37192121 18.07675614 -54.07305448 15.22692059 -46.41015625 13.05078125 C-41.62012422 11.57481491 -36.94841183 9.80514457 -32.25 8.0625 C-25.34051374 5.51951134 -18.42377389 3.06839857 -11.375 0.9375 C-10.6830957 0.7216626 -9.99119141 0.5058252 -9.27832031 0.28344727 C-5.87518214 -0.71277053 -3.36342584 -1.3573216 0 0 Z " fill="#78AF3C" transform="translate(287,116)"/>
<path d="M0 0 C4.09215914 2.28679482 7.49950248 4.90653707 11 8 C11 8.33 11 8.66 11 9 C4.73 9.33 -1.54 9.66 -8 10 C-8.33 36.07 -8.66 62.14 -9 89 C-17.25 89 -25.5 89 -34 89 C-34 78.11 -34 67.22 -34 56 C-39.61 56 -45.22 56 -51 56 C-51 66.89 -51 77.78 -51 89 C-59.58 89 -68.16 89 -77 89 C-77.1617393 84.87179693 -77.30068206 80.75176084 -77.38452148 76.62207031 C-77.41949242 75.22129884 -77.46709032 73.82077858 -77.52807617 72.42089844 C-78.08472679 59.304526 -78.08472679 59.304526 -73.63671875 54.1640625 C-71.7722168 52.41259766 -71.7722168 52.41259766 -70 51 C-69.13375 50.29875 -68.2675 49.5975 -67.375 48.875 C-66.199375 47.946875 -66.199375 47.946875 -65 47 C-64.175 46.01 -63.35 45.02 -62.5 44 C-59.3818919 40.25827028 -56.65305262 37.55101754 -52 36 C-50.89739868 34.86294239 -49.79589029 33.7248091 -48.69921875 32.58203125 C-44.81802017 28.96850154 -40.32505435 26.05195368 -36 23 C-35.1234375 22.37480469 -34.246875 21.74960938 -33.34375 21.10546875 C-18.37711864 10.50410487 -18.37711864 10.50410487 -13 10 C-13 9.34 -13 8.68 -13 8 C-11.06753564 6.73792297 -9.07723953 5.56359129 -7.0625 4.4375 C-3.31381893 2.52358755 -3.31381893 2.52358755 0 0 Z " fill="#2169AC" transform="translate(282,121)"/>
<path d="M0 0 C6.24387037 -0.07453656 12.4874778 -0.12878447 18.73168945 -0.16479492 C20.85282914 -0.17981784 22.9739381 -0.20024211 25.0949707 -0.22631836 C28.15583919 -0.26298838 31.21629454 -0.27979175 34.27734375 -0.29296875 C35.6841465 -0.31619453 35.6841465 -0.31619453 37.11936951 -0.33988953 C45.03595397 -0.34188212 52.50245244 0.87342685 58.4375 6.5 C59.07558594 7.0878125 59.71367187 7.675625 60.37109375 8.28125 C62 10 62 10 64 13 C64.33 9.7 64.66 6.4 65 3 C72.26 3 79.52 3 87 3 C86.99097656 5.08441406 86.98195313 7.16882813 86.97265625 9.31640625 C86.98771172 11.35543056 87.01465903 13.39397938 87.04272461 15.43286133 C87.05579127 16.84002738 87.05666558 18.24736536 87.04467773 19.65454102 C86.7487929 29.30640202 86.7487929 29.30640202 91.390625 37.3671875 C93.42076107 39.00534537 95.42571043 40.24750606 97.6875 41.5625 C100.76155156 43.47339691 102.07397549 45.97918261 104 49 C94.12971218 53.54552729 84.34115294 54.58244076 73.60229492 54.72143555 C72.16621806 54.74038457 70.73024503 54.77103151 69.29467773 54.8137207 C57.7838138 55.11618234 57.7838138 55.11618234 53.56884766 52.47875977 C51.82058134 50.74163325 50.41343904 49.01251996 49 47 C46.28654247 44.21870603 43.55025644 41.60281114 40.5625 39.125 C38.1436652 37.08671464 36.07229833 35.00374961 34.0625 32.5625 C31.4078607 29.36439123 28.50892377 26.71755657 25.3515625 24.0234375 C22.44170353 21.51960536 19.59051188 18.95696909 16.75 16.375 C16.24259277 15.91963867 15.73518555 15.46427734 15.21240234 14.99511719 C12.89922676 12.88750627 10.82843753 10.78491617 8.875 8.3359375 C7.11498652 6.14325403 5.57903911 4.78278642 3.25 3.25 C2.1775 2.5075 1.105 1.765 0 1 C0 0.67 0 0.34 0 0 Z " fill="#2169AC" transform="translate(169,66)"/>
<path d="M0 0 C-0.49028616 4.24426822 -1.55455549 6.01792037 -4.8125 8.75 C-5.49957031 9.34296875 -6.18664062 9.9359375 -6.89453125 10.546875 C-9 12 -9 12 -13 13 C-13 16.63 -13 20.26 -13 24 C-11.68 24 -10.36 24 -9 24 C-9.66 25.32 -10.32 26.64 -11 28 C-11.66 28 -12.32 28 -13 28 C-13 31.96 -13 35.92 -13 40 C-14.98 40.495 -14.98 40.495 -17 41 C-18.98 35.06 -20.96 29.12 -23 23 C-27.83504601 25.01780463 -27.83504601 25.01780463 -32 28 C-33.07968618 31.3675926 -33.17066983 34.48420155 -33 38 C-34.485 38.495 -34.485 38.495 -36 39 C-37.85776765 35.86501708 -38.20140476 33.62528568 -38 30 C-38.66 30 -39.32 30 -40 30 C-41.33333333 28.66666667 -42.66666667 27.33333333 -44 26 C-46.13309192 24.76487921 -46.13309192 24.76487921 -48 24 C-47.505 22.515 -47.505 22.515 -47 21 C-46.03900391 21.33837891 -46.03900391 21.33837891 -45.05859375 21.68359375 C-42.25453091 22.49012747 -39.92469026 23.01702876 -37 23 C-34.06929556 21.10647771 -32.17594334 18.68902089 -30 16 C-29.34 15.67 -28.68 15.34 -28 15 C-30.16014714 12.83985286 -32.1278493 12.13056452 -34.9140625 10.99609375 C-38.8738442 9.10518676 -42.41408091 6.51258276 -46 4 C-44.8359375 2.47265625 -44.8359375 2.47265625 -43 1 C-40.4765625 0.99609375 -40.4765625 0.99609375 -37.625 1.4375 C-33.37098746 2.08790688 -30.90068571 1.8794213 -27 0 C-26.34 1.65 -25.68 3.3 -25 5 C-19.75658264 6.41345012 -19.75658264 6.41345012 -14.828125 4.765625 C-13.47433301 3.69684185 -12.14882547 2.59089866 -10.859375 1.4453125 C-7.20736457 -1.3934351 -4.34706671 -1.08676668 0 0 Z " fill="#226AAC" transform="translate(332,82)"/>
<path d="M0 0 C2.206875 -0.04125 4.41375 -0.0825 6.6875 -0.125 C8.54955078 -0.15980469 8.54955078 -0.15980469 10.44921875 -0.1953125 C13.86481501 -0.00743592 16.0251028 0.3508722 19 2 C21.43992695 6.37504143 22.7279624 10.00825783 22 15 C20.63942553 18.48190025 19.18095589 21.3637808 15.78125 23.1953125 C10.60752662 24.69220438 5.34809378 24.1080423 0 24 C0 16.08 0 8.16 0 0 Z " fill="#78AF3C" transform="translate(225,231)"/>
<path d="M0 0 C0.99 0.33 1.98 0.66 3 1 C2.06815947 3.87694456 1.12975199 6.75146556 0.1875 9.625 C-0.07353516 10.43324219 -0.33457031 11.24148437 -0.60351562 12.07421875 C-2.09063183 16.59064573 -3.73579472 20.79796137 -6 25 C-7.828125 24.91015625 -7.828125 24.91015625 -10 24 C-11.484375 21.05859375 -11.484375 21.05859375 -12.75 17.4375 C-13.17796875 16.23996094 -13.6059375 15.04242188 -14.046875 13.80859375 C-14.36140625 12.88175781 -14.6759375 11.95492187 -15 11 C-15.34933594 11.84304687 -15.69867188 12.68609375 -16.05859375 13.5546875 C-16.51363281 14.65039062 -16.96867187 15.74609375 -17.4375 16.875 C-17.88996094 17.96554688 -18.34242188 19.05609375 -18.80859375 20.1796875 C-19.49543463 21.80558624 -20.21065887 23.42131774 -21 25 C-22.32 25 -23.64 25 -25 25 C-26.34146494 21.56561785 -27.67175905 18.12701583 -29 14.6875 C-29.3815625 13.71103516 -29.763125 12.73457031 -30.15625 11.72851562 C-30.5171875 10.79072266 -30.878125 9.85292969 -31.25 8.88671875 C-31.58515625 8.02264404 -31.9203125 7.15856934 -32.265625 6.26831055 C-33 4 -33 4 -33 1 C-31.35 1 -29.7 1 -28 1 C-26.35 5.62 -24.7 10.24 -23 15 C-22.67 15 -22.34 15 -22 15 C-21.79503906 14.15695313 -21.59007812 13.31390625 -21.37890625 12.4453125 C-21.10949219 11.34960938 -20.84007812 10.25390625 -20.5625 9.125 C-20.29566406 8.03445312 -20.02882813 6.94390625 -19.75390625 5.8203125 C-19 3 -19 3 -18 1 C-16.35 1 -14.7 1 -13 1 C-11.35 5.62 -9.7 10.24 -8 15 C-7.236875 12.89625 -6.47375 10.7925 -5.6875 8.625 C-3.375 2.25 -3.375 2.25 0 0 Z " fill="#246BAD" transform="translate(340,230)"/>
<path d="M0 0 C2.475 0.495 2.475 0.495 5 1 C6.52704868 3.38952105 7.67818833 5.50090874 8.8125 8.0625 C9.12380859 8.72572266 9.43511719 9.38894531 9.75585938 10.07226562 C10.5204098 11.7072273 11.2624305 13.3526906 12 15 C12.96019364 13.41779413 13.91807798 11.83418669 14.875 10.25 C15.67550781 8.92742187 15.67550781 8.92742187 16.4921875 7.578125 C18.02386603 5.11399027 18.02386603 5.11399027 18.8828125 2.734375 C19.43582031 1.87585938 19.43582031 1.87585938 20 1 C21.65 0.67 23.3 0.34 25 0 C25 8.25 25 16.5 25 25 C23.35 25 21.7 25 20 25 C19.505 20.05 19.505 20.05 19 15 C17.35 17.31 15.7 19.62 14 22 C10 21 10 21 7.75 17.9375 C7.1725 16.968125 6.595 15.99875 6 15 C5.67 18.3 5.34 21.6 5 25 C3.35 25 1.7 25 0 25 C0 16.75 0 8.5 0 0 Z " fill="#79AF3D" transform="translate(111,230)"/>
<path d="M0 0 C1.32 0 2.64 0 4 0 C6.67739056 5.2476855 9.23603018 10.54752083 11.75 15.875 C12.06783447 16.54152588 12.38566895 17.20805176 12.71313477 17.89477539 C15 22.76814688 15 22.76814688 15 25 C13.35 25 11.7 25 10 25 C9.34 23.68 8.68 22.36 8 21 C4.04 21 0.08 21 -4 21 C-4.66 22.32 -5.32 23.64 -6 25 C-7.32 25 -8.64 25 -10 25 C-9.67327998 17.81215967 -6.31514553 12.25919268 -3 6 C-1.99537306 4.00232017 -0.99404322 2.00296732 0 0 Z " fill="#236BAD" transform="translate(355,230)"/>
<path d="M0 0 C1.65 0 3.3 0 5 0 C5 0.66 5 1.32 5 2 C5.66 2 6.32 2 7 2 C8.18359375 3.35546875 8.18359375 3.35546875 9.4375 5.1875 C10.05431641 6.07501953 10.05431641 6.07501953 10.68359375 6.98046875 C12.1835499 9.28158842 13.58677276 11.64462127 15 14 C15.33 9.38 15.66 4.76 16 0 C17.65 0 19.3 0 21 0 C21 7.92 21 15.84 21 24 C19.35 24 17.7 24 16 24 C13.08305678 20.99726433 11.14283718 17.57139531 9 14 C7.68 12.35 6.36 10.7 5 9 C4.67 13.95 4.34 18.9 4 24 C2.68 24 1.36 24 0 24 C0 16.08 0 8.16 0 0 Z " fill="#2169AC" transform="translate(269,231)"/>
<path d="M0 0 C1.32 0 2.64 0 4 0 C4 2.97 4 5.94 4 9 C7.63 9 11.26 9 15 9 C15 6.03 15 3.06 15 0 C16.98 0 18.96 0 21 0 C21.02887236 3.81248426 21.04675492 7.6249407 21.0625 11.4375 C21.07087891 12.52611328 21.07925781 13.61472656 21.08789062 14.73632812 C21.09272461 16.28803711 21.09272461 16.28803711 21.09765625 17.87109375 C21.10551147 19.30859985 21.10551147 19.30859985 21.11352539 20.77514648 C21 23 21 23 20 24 C18.35 24 16.7 24 15 24 C15 20.7 15 17.4 15 14 C11.7 14 8.4 14 5 14 C5 17.3 5 20.6 5 24 C3.35 24 1.7 24 0 24 C0 16.08 0 8.16 0 0 Z " fill="#7CB142" transform="translate(57,231)"/>
<path d="M0 0 C1.81640625 0.1640625 1.81640625 0.1640625 4 1 C5.52734375 3.3359375 5.52734375 3.3359375 6.9375 6.375 C7.44410156 7.45136719 7.95070312 8.52773437 8.47265625 9.63671875 C8.97667969 10.74660156 9.48070312 11.85648438 10 13 C10.49371094 14.05832031 10.98742187 15.11664063 11.49609375 16.20703125 C15 23.78063031 15 23.78063031 15 25 C13.35 25 11.7 25 10 25 C9.34 23.35 8.68 21.7 8 20 C3.71 20 -0.58 20 -5 20 C-5.33 21.65 -5.66 23.3 -6 25 C-7.32 25 -8.64 25 -10 25 C-9.50782515 19.13235294 -7.74216232 14.86021529 -5 9.6875 C-4.63132813 8.97271484 -4.26265625 8.25792969 -3.8828125 7.52148438 C-2.93002285 5.67675842 -1.96580568 3.83794487 -1 2 C-0.67 1.34 -0.34 0.68 0 0 Z " fill="#78AF3C" transform="translate(152,230)"/>
<path d="M0 0 C3.64709451 0.94786794 4.83185335 1.74626368 6.94921875 4.94140625 C7.5479942 6.13895715 8.12673502 7.34668635 8.6875 8.5625 C8.98857666 9.18785645 9.28965332 9.81321289 9.59985352 10.45751953 C11.84037688 15.26509023 13.18979752 19.77869512 14 25 C12.35 24.67 10.7 24.34 9 24 C8.67 23.01 8.34 22.02 8 21 C4.04 21 0.08 21 -4 21 C-4.66 22.32 -5.32 23.64 -6 25 C-7.65 25 -9.3 25 -11 25 C-9.00106751 18.27188576 -6.24724573 12.21075154 -3 6 C-2.39295579 4.79310973 -1.78824768 3.58503679 -1.1875 2.375 C-0.795625 1.59125 -0.40375 0.8075 0 0 Z " fill="#79AF3D" transform="translate(206,230)"/>
<path d="M0 0 C0.495 0.309375 0.99 0.61875 1.5 0.9375 C0.84 2.2575 0.18 3.5775 -0.5 4.9375 C-1.5209375 4.4115625 -1.5209375 4.4115625 -2.5625 3.875 C-6.3180978 2.67640496 -8.70103588 2.95258338 -12.5 3.9375 C-15.07572291 6.18087157 -15.43881541 7.57039245 -16 10.9375 C-15.75493909 14.09548202 -15.75493909 14.09548202 -13.3125 16.3125 C-10.28441492 18.06206027 -8.91832796 18.38727999 -5.5 17.9375 C-4.51 17.6075 -3.52 17.2775 -2.5 16.9375 C-2.83 15.9475 -3.16 14.9575 -3.5 13.9375 C-5.51508358 13.20426204 -5.51508358 13.20426204 -7.5 12.9375 C-7.5 11.6175 -7.5 10.2975 -7.5 8.9375 C-4.2 8.9375 -0.9 8.9375 2.5 8.9375 C2.5 13.5575 2.5 18.1775 2.5 22.9375 C0.85 22.6075 -0.8 22.2775 -2.5 21.9375 C-3.61375 22.30875 -4.7275 22.68 -5.875 23.0625 C-10.50020021 24.17892764 -12.40783104 23.21967115 -16.5 20.9375 C-18.6291713 19.24624337 -19.40013334 18.32691295 -20.08203125 15.66796875 C-20.95294086 6.05844065 -20.95294086 6.05844065 -18.5 1.9375 C-12.56242848 -2.72469816 -6.89105437 -2.92869811 0 0 Z " fill="#78AF3D" transform="translate(48.5,232.0625)"/>
<path d="M0 0 C3.4375 1.5 3.4375 1.5 6 3 C5.34 4.32 4.68 5.64 4 7 C3.45730469 6.77183594 2.91460937 6.54367188 2.35546875 6.30859375 C1.64003906 6.02113281 0.92460937 5.73367187 0.1875 5.4375 C-0.52019531 5.14746094 -1.22789062 4.85742188 -1.95703125 4.55859375 C-4.1735067 3.74936976 -4.1735067 3.74936976 -7 5 C-7 5.99 -7 6.98 -7 8 C-6.15695312 8.33773437 -5.31390625 8.67546875 -4.4453125 9.0234375 C-3.34960938 9.46945313 -2.25390625 9.91546875 -1.125 10.375 C-0.03445313 10.81585938 1.05609375 11.25671875 2.1796875 11.7109375 C5 13 5 13 7 15 C7.4375 17.875 7.4375 17.875 7 21 C4.58228737 23.63104022 2.62078457 24.7883689 -0.75 25.9375 C-5.09805015 26.02111635 -9.208665 25.21094693 -13 23 C-13.76171875 20.88671875 -13.76171875 20.88671875 -14 19 C-13.01 18.34 -12.02 17.68 -11 17 C-10.319375 17.515625 -9.63875 18.03125 -8.9375 18.5625 C-5.19881168 20.39207088 -2.99556587 19.86178872 1 19 C1.33 18.01 1.66 17.02 2 16 C0.205625 15.8453125 0.205625 15.8453125 -1.625 15.6875 C-5.56927729 15.19709252 -8.57508167 14.08836483 -12 12 C-13.4783226 9.04335481 -13.06032783 6.25770263 -13 3 C-8.44784545 0.33532416 -5.2694336 -0.56458217 0 0 Z " fill="#236AAC" transform="translate(387,230)"/>
<path d="M0 0 C1.65 0 3.3 0 5 0 C5.33 3.3 5.66 6.6 6 10 C6.763125 8.72125 7.52625 7.4425 8.3125 6.125 C10.09325753 3.14102793 11.01793988 1.98804008 14 0 C17.1875 -0.125 17.1875 -0.125 20 0 C20 0.66 20 1.32 20 2 C18.84155981 2.93310768 17.64793329 3.82290479 16.4375 4.6875 C14.46963464 6.19332881 14.46963464 6.19332881 13 8 C12.8856663 11.80001865 12.8856663 11.80001865 14 15 C14.99 15.33 15.98 15.66 17 16 C18.38671875 17.84765625 18.38671875 17.84765625 19.6875 20.0625 C20.12449219 20.79597656 20.56148437 21.52945313 21.01171875 22.28515625 C21.50091797 23.13400391 21.50091797 23.13400391 22 24 C19.4375 24.5625 19.4375 24.5625 16 24 C13.30799734 21.24351824 11.14272323 18.1950666 9 15 C8.01 15.66 7.02 16.32 6 17 C5.26393501 20.56769552 5.26393501 20.56769552 5 24 C3.35 24 1.7 24 0 24 C0 16.08 0 8.16 0 0 Z " fill="#78AF3D" transform="translate(171,231)"/>
<path d="M0 0 C2.0625 0.4375 2.0625 0.4375 4 1 C4.0816082 3.37570543 4.14077222 5.74855841 4.1875 8.125 C4.21263672 8.79015625 4.23777344 9.4553125 4.26367188 10.140625 C4.33332123 14.87678098 3.46132127 17.97183762 1 22 C-2.00168156 25.00168156 -4.76419914 25.91528398 -9 26 C-13.97360609 23.5619578 -15.96885106 21.07787236 -18 16 C-18.20597558 13.2811224 -18.28948136 10.82358378 -18.1875 8.125 C-18.17396484 7.43664062 -18.16042969 6.74828125 -18.14648438 6.0390625 C-18.1114837 4.35902999 -18.05768954 2.6794065 -18 1 C-16.35 1 -14.7 1 -13 1 C-12.94392578 2.55460938 -12.94392578 2.55460938 -12.88671875 4.140625 C-12.82104212 5.51045184 -12.75459536 6.88024191 -12.6875 8.25 C-12.66494141 8.93191406 -12.64238281 9.61382812 -12.61914062 10.31640625 C-12.39833396 14.45151296 -11.90407 16.97914434 -9 20 C-6.56282742 19.72965366 -6.56282742 19.72965366 -4 19 C-1.60287644 15.40431467 -1.59813647 12.54371239 -1.4375 8.375 C-1.12062682 1.12062682 -1.12062682 1.12062682 0 0 Z " fill="#79B03E" transform="translate(101,230)"/>
<path d="M0 0 C8.49992961 0.61593693 8.49992961 0.61593693 10.734375 2.33203125 C12.85454654 5.12620794 12.94060998 7.55537906 13 11 C11.625 13.875 11.625 13.875 9 16 C5.93722602 16.71043726 3.16779056 16.86024453 0 17 C0 11.39 0 5.78 0 0 Z " fill="#FDFEFC" transform="translate(230,234)"/>
<path d="M0 0 C1.32 0 2.64 0 4 0 C4 7.92 4 15.84 4 24 C2.68 24 1.36 24 0 24 C0 16.08 0 8.16 0 0 Z " fill="#2169AC" transform="translate(297,231)"/>
<path d="M0 0 C2.97 0 5.94 0 9 0 C9 2.97 9 5.94 9 9 C6.03 9 3.06 9 0 9 C0 6.03 0 3.06 0 0 Z " fill="#FCFDFB" transform="translate(147,123)"/>
<path d="M0 0 C2.97 0 5.94 0 9 0 C9 2.97 9 5.94 9 9 C6.03 9 3.06 9 0 9 C0 6.03 0 3.06 0 0 Z " fill="#FCFDFA" transform="translate(147,111)"/>
<path d="M0 0 C0.99 0.99 1.98 1.98 3 3 C0.36 6.63 -2.28 10.26 -5 14 C-6.65 13.01 -8.3 12.02 -10 11 C-7.58662205 6.17324411 -4.13937592 3.30015998 0 0 Z " fill="#226AAC" transform="translate(191,180)"/>
<path d="M0 0 C2.64 0 5.28 0 8 0 C8 2.97 8 5.94 8 9 C5.36 9 2.72 9 0 9 C0 6.03 0 3.06 0 0 Z " fill="#FFFFFF" transform="translate(160,123)"/>
<path d="M0 0 C2.64 0 5.28 0 8 0 C8 2.97 8 5.94 8 9 C5.36 9 2.72 9 0 9 C0 6.03 0 3.06 0 0 Z " fill="#FFFFFF" transform="translate(160,111)"/>
<path d="M0 0 C1.98 0.66 3.96 1.32 6 2 C3.25 7.75 3.25 7.75 1 10 C-2.125 10.125 -2.125 10.125 -5 10 C-4.38545304 6.00544473 -2.29353263 3.25533664 0 0 Z " fill="#2E72B1" transform="translate(173,201)"/>
<path d="M0 0 C0.99 0.33 1.98 0.66 3 1 C3 1.99 3 2.98 3 4 C0.375 6.04296875 0.375 6.04296875 -3 8.1875 C-3.57234375 8.55552734 -4.1446875 8.92355469 -4.734375 9.30273438 C-6.15024462 10.21125071 -7.57437797 11.10686477 -9 12 C-10.32 11.34 -11.64 10.68 -13 10 C-11.34348188 8.65407903 -9.67344761 7.32481269 -8 6 C-7.33742187 5.45988281 -6.67484375 4.91976562 -5.9921875 4.36328125 C-4.94417969 3.53376953 -4.94417969 3.53376953 -3.875 2.6875 C-2.88113281 1.88892578 -2.88113281 1.88892578 -1.8671875 1.07421875 C-1.25101563 0.71972656 -0.63484375 0.36523438 0 0 Z " fill="#FDFEFD" transform="translate(160,174)"/>
<path d="M0 0 C-0.37216341 2.5995892 -0.69315428 3.73317764 -2.70703125 5.484375 C-3.40183594 5.90203125 -4.09664062 6.3196875 -4.8125 6.75 C-5.84310547 7.39195312 -5.84310547 7.39195312 -6.89453125 8.046875 C-9 9 -9 9 -13 9 C-13.33 8.34 -13.66 7.68 -14 7 C-12.23462904 5.82508418 -10.46250287 4.66031316 -8.6875 3.5 C-7.70136719 2.8503125 -6.71523437 2.200625 -5.69921875 1.53125 C-3 0 -3 0 0 0 Z " fill="#FAFCF8" transform="translate(189,158)"/>
<path d="M0 0 C2.09782787 2.09782787 2.6509396 3.3799207 3.625 6.125 C3.88539063 6.84945312 4.14578125 7.57390625 4.4140625 8.3203125 C4.70410156 9.15175781 4.70410156 9.15175781 5 10 C2.36 10 -0.28 10 -3 10 C-2.01 6.7 -1.02 3.4 0 0 Z " fill="#FCFDFB" transform="translate(207,236)"/>
<path d="M0 0 C0.66 0 1.32 0 2 0 C2.66 2.97 3.32 5.94 4 9 C1.69 9 -0.62 9 -3 9 C-2.01 6.03 -1.02 3.06 0 0 Z " fill="#FEFEFD" transform="translate(153,237)"/>
<path d="M0 0 C0.66 0 1.32 0 2 0 C1.52753358 4.25219775 -0.77272377 6.37314725 -4 9 C-6.3125 8.8125 -6.3125 8.8125 -8 8 C-8 7.34 -8 6.68 -8 6 C-6.34928604 4.97388051 -4.68029994 3.97691857 -3 3 C-2.1646875 2.1646875 -2.1646875 2.1646875 -1.3125 1.3125 C-0.879375 0.879375 -0.44625 0.44625 0 0 Z " fill="#226AAC" transform="translate(208,164)"/>
<path d="M0 0 C0.66 0 1.32 0 2 0 C2.99 2.64 3.98 5.28 5 8 C2.69 8 0.38 8 -2 8 C-1.47731534 5.23723823 -0.89130413 2.6739124 0 0 Z " fill="#FFFFFF" transform="translate(356,238)"/>
<path d="M0 0 C3.63 0 7.26 0 11 0 C11 0.99 11 1.98 11 3 C7.37 3 3.74 3 0 3 C0 2.01 0 1.02 0 0 Z " fill="#2169AC" transform="translate(252,243)"/>
<path d="M0 0 C0 0.66 0 1.32 0 2 C-1.43294498 2.84114171 -2.87154405 3.67265687 -4.3125 4.5 C-5.51326172 5.19609375 -5.51326172 5.19609375 -6.73828125 5.90625 C-9 7 -9 7 -12 7 C-10.77887968 3.33663903 -9.13279518 2.64957986 -5.88671875 0.76953125 C-4 0 -4 0 0 0 Z " fill="#FDFDFC" transform="translate(215,145)"/>
<path d="M0 0 C0.66 0.33 1.32 0.66 2 1 C0.5361389 5.39158329 -1.97831338 5.87947433 -6 8 C-6.66 7.34 -7.32 6.68 -8 6 C-5.36 4.02 -2.72 2.04 0 0 Z " fill="#2C70B0" transform="translate(226,151)"/>
</svg>
